<?xml version="1.0" standalone="no"?>
<!DOCTYPE svg PUBLIC "-//W3C//DTD SVG 20010904//EN"
 "http://www.w3.org/TR/2001/REC-SVG-20010904/DTD/svg10.dtd">
<svg version="1.0" xmlns="http://www.w3.org/2000/svg"
 width="928.000000pt" height="928.000000pt" viewBox="0 0 928.000000 928.000000"
 preserveAspectRatio="xMidYMid meet">
<metadata>
Created by potrace 1.14, written by Peter Selinger 2001-2017
</metadata>
<g transform="translate(0.000000,928.000000) scale(0.100000,-0.100000)"
fill="#000000" stroke="none">
<path d="M2296 8618 c-7 -13 -40 -68 -71 -123 -32 -55 -68 -118 -81 -140 -13
-22 -53 -92 -89 -155 -36 -63 -70 -122 -75 -130 -69 -115 -150 -260 -150 -268
0 -6 -4 -12 -8 -14 -8 -3 -31 -42 -88 -148 -11 -19 -21 -37 -24 -40 -5 -5 -18
-27 -44 -75 -6 -11 -13 -22 -16 -25 -4 -4 -18 -29 -64 -115 -6 -11 -13 -22
-16 -25 -3 -3 -12 -19 -21 -35 -8 -17 -51 -91 -94 -165 -43 -74 -112 -193
-153 -265 -123 -213 -132 -229 -151 -260 -10 -16 -33 -57 -51 -90 -18 -33 -36
-62 -39 -65 -3 -3 -15 -23 -27 -45 -46 -90 -188 -331 -198 -337 -6 -4 -8 -8
-4 -8 4 0 -14 -35 -39 -77 -25 -43 -56 -96 -67 -118 -12 -22 -23 -42 -27 -45
-10 -10 -99 -169 -99 -179 0 -5 -4 -11 -8 -13 -5 -1 -22 -28 -39 -58 -16 -30
-52 -92 -79 -138 -27 -46 -58 -100 -70 -120 -36 -65 -71 -125 -123 -215 -28
-49 -51 -93 -51 -98 0 -5 -4 -9 -9 -9 -5 0 -11 -8 -15 -17 -3 -10 -19 -40 -36
-68 -16 -27 -33 -57 -37 -65 -3 -8 -14 -26 -23 -40 -10 -14 -28 -45 -42 -70
-14 -25 -35 -62 -46 -82 l-21 -37 25 -48 c14 -26 30 -52 34 -58 4 -5 17 -26
28 -46 11 -19 55 -96 98 -170 71 -123 150 -259 210 -366 13 -23 53 -92 89
-153 36 -61 65 -115 65 -121 0 -5 4 -9 9 -9 5 0 11 -8 14 -18 3 -9 24 -48 47
-87 23 -38 44 -78 47 -88 3 -9 9 -17 14 -17 5 0 9 -5 9 -11 0 -6 8 -23 19 -37
18 -26 73 -124 95 -169 6 -13 14 -23 19 -23 4 0 7 -4 7 -9 0 -5 41 -80 92
-168 50 -87 99 -171 107 -186 9 -16 21 -36 26 -45 10 -16 41 -70 123 -211 18
-31 37 -65 42 -76 6 -11 19 -33 29 -50 10 -16 27 -46 38 -65 11 -19 44 -75 72
-123 28 -49 51 -93 51 -98 0 -5 3 -9 8 -9 4 0 12 -10 18 -23 23 -49 59 -112
67 -115 4 -2 7 -8 7 -14 0 -5 7 -16 15 -24 8 -9 15 -24 15 -35 0 -10 3 -19 8
-19 4 0 19 -21 32 -48 14 -26 27 -49 30 -52 8 -8 28 -43 45 -75 8 -16 26 -48
40 -70 13 -22 28 -47 32 -55 3 -8 17 -33 31 -54 13 -22 34 -58 47 -80 12 -23
73 -129 135 -236 62 -107 124 -215 138 -240 13 -25 28 -49 32 -55 4 -5 20 -32
36 -60 15 -27 36 -63 46 -80 10 -16 22 -39 27 -50 6 -11 27 -49 49 -85 l38
-65 2313 0 2314 0 17 32 c10 18 22 39 29 46 6 8 8 17 4 20 -3 4 -2 7 4 7 6 0
13 8 17 18 3 9 17 35 30 57 14 22 28 47 32 55 4 7 24 41 44 75 21 33 40 70 44
83 4 12 12 22 17 22 5 0 9 4 9 9 0 9 81 153 91 161 3 3 12 19 21 35 8 17 25
48 38 70 13 22 33 57 44 77 12 20 66 115 120 210 55 95 104 182 110 193 6 10
17 25 24 33 6 7 12 20 12 28 0 8 5 14 10 14 6 0 10 5 10 10 0 6 18 40 40 76
22 36 40 67 40 69 0 1 30 54 67 116 36 63 71 123 77 134 6 11 41 71 76 132 36
62 72 125 80 140 8 16 30 52 48 81 17 29 32 57 32 62 0 6 4 10 8 10 4 0 13 12
19 27 12 28 37 73 93 164 16 26 45 77 66 115 20 38 52 93 71 122 18 29 33 55
33 58 0 3 9 19 21 35 11 16 17 29 12 29 -4 0 -3 4 3 8 6 4 24 30 39 57 16 28
35 63 44 78 9 16 21 36 26 45 61 102 105 183 105 192 0 5 3 10 8 10 4 0 23 29
42 65 19 36 38 65 43 65 4 0 7 8 7 19 0 10 7 24 15 31 8 7 15 16 15 20 0 5 26
52 58 107 32 54 70 118 84 143 53 95 222 387 245 422 12 21 23 42 23 47 0 5 7
14 15 21 8 7 15 21 15 32 0 18 -35 94 -50 108 -3 3 -14 23 -25 45 -11 22 -23
42 -26 45 -3 3 -20 32 -39 65 -18 33 -48 85 -66 115 -46 78 -226 390 -244 422
-8 15 -32 56 -52 92 -21 35 -38 69 -38 75 0 6 -4 11 -10 11 -5 0 -10 7 -10 15
0 8 -4 15 -10 15 -5 0 -10 4 -10 10 0 5 -32 64 -71 132 -40 67 -80 136 -89
153 -31 56 -160 280 -170 295 -5 8 -25 42 -43 75 -19 33 -83 143 -142 245 -59
102 -121 210 -138 240 -16 30 -36 62 -43 71 -8 8 -14 19 -14 22 0 4 -38 73
-85 152 -47 80 -85 150 -85 155 0 6 -4 10 -10 10 -5 0 -10 4 -10 9 0 6 -17 38
-37 73 -21 35 -46 77 -55 93 -10 17 -26 46 -36 65 -9 19 -20 37 -24 38 -5 2
-8 10 -8 18 0 8 -4 14 -10 14 -5 0 -10 4 -10 10 0 5 -22 47 -50 94 -27 47 -50
89 -50 95 0 6 -3 11 -7 11 -5 0 -13 10 -19 23 -14 30 -46 85 -191 335 -67 117
-123 217 -123 222 0 6 -4 10 -9 10 -5 0 -11 8 -14 18 -4 9 -20 40 -37 67 -17
28 -33 57 -37 65 -4 8 -9 17 -12 20 -3 3 -15 23 -26 45 -11 22 -23 42 -26 45
-3 3 -14 20 -23 38 l-17 32 -2309 0 -2310 0 -14 -22z m2544 -1402 c41 -4 86
-9 100 -11 69 -10 117 -17 135 -20 11 -1 34 -5 50 -9 17 -3 39 -8 50 -10 25
-5 146 -35 163 -41 7 -3 14 -5 17 -5 3 0 24 -8 47 -16 24 -9 48 -17 53 -18 99
-20 568 -252 583 -288 2 -4 10 -8 18 -8 8 0 14 -4 14 -8 0 -4 15 -16 33 -27
17 -10 44 -28 58 -39 15 -12 44 -34 65 -51 134 -106 322 -294 424 -425 19 -25
38 -46 42 -48 5 -2 8 -8 8 -14 0 -6 15 -29 33 -51 17 -23 37 -49 42 -58 6 -9
34 -57 64 -105 57 -95 155 -294 189 -384 11 -30 24 -64 28 -75 4 -11 8 -23 9
-27 2 -5 4 -10 5 -13 1 -3 4 -9 5 -15 1 -5 3 -12 4 -15 0 -3 2 -8 2 -12 1 -5
10 -32 20 -60 10 -29 16 -53 14 -53 -3 0 0 -12 6 -27 11 -29 36 -143 45 -203
3 -19 9 -63 15 -96 27 -182 29 -478 4 -659 -4 -22 -8 -53 -10 -70 -2 -16 -6
-43 -9 -60 -12 -59 -16 -80 -21 -105 -3 -14 -7 -34 -10 -45 -2 -11 -14 -54
-25 -95 -12 -41 -23 -82 -25 -90 -2 -8 -13 -42 -25 -75 -13 -33 -26 -69 -30
-80 -4 -11 -7 -23 -6 -26 0 -3 -5 -13 -13 -22 -7 -10 -11 -17 -8 -17 13 0
-154 -313 -218 -409 -39 -58 -74 -112 -80 -120 -5 -9 -12 -18 -15 -21 -3 -3
-36 -43 -74 -90 -75 -93 -263 -283 -341 -345 -27 -22 -52 -42 -55 -45 -7 -8
-181 -132 -205 -147 -119 -73 -155 -93 -164 -93 -5 0 -16 -6 -23 -13 -15 -14
-169 -87 -243 -115 -27 -10 -59 -23 -70 -27 -11 -5 -22 -9 -25 -10 -3 -1 -12
-5 -20 -8 -23 -9 -222 -68 -245 -72 -11 -2 -31 -6 -45 -9 -93 -21 -103 -23
-175 -31 -22 -2 -51 -7 -65 -10 -43 -9 -220 -19 -335 -19 -170 1 -318 15 -471
45 -28 5 -63 12 -79 15 -15 3 -36 9 -45 14 -10 5 -20 7 -22 5 -3 -3 -24 1 -47
9 -23 9 -42 15 -44 14 -5 -3 -145 45 -232 79 -98 38 -314 144 -357 174 -14 11
-31 19 -37 19 -6 0 -11 5 -11 10 0 6 -5 10 -10 10 -10 0 -69 38 -80 51 -3 3
-16 12 -29 19 -26 13 -40 24 -72 53 -10 9 -21 17 -24 17 -3 0 -15 9 -27 19
-13 10 -45 38 -73 61 -76 64 -196 182 -256 251 -30 34 -64 74 -76 88 -47 54
-203 275 -203 287 0 3 -8 18 -19 32 -36 53 -181 349 -181 372 0 6 -4 18 -10
28 -22 40 -99 302 -114 387 -2 17 -9 55 -15 85 -49 254 -46 684 6 915 4 17 8
38 9 48 1 9 3 19 4 22 3 6 4 9 14 60 4 22 14 58 21 80 7 22 25 81 40 130 15
50 33 100 41 113 8 12 12 22 9 22 -3 0 3 17 14 39 11 21 17 41 14 45 -4 3 -1
6 5 6 7 0 12 6 12 13 0 17 99 211 144 281 20 31 36 59 36 61 0 3 21 33 46 67
25 35 53 74 62 87 9 13 24 32 33 41 9 10 21 25 25 33 29 51 276 300 366 370
16 12 46 37 66 54 20 18 42 33 48 33 7 0 14 7 18 15 3 8 12 15 20 15 8 0 16 4
18 8 4 10 140 98 218 141 57 32 200 101 260 126 79 32 272 99 317 110 123 29
203 47 223 50 14 2 41 6 60 10 42 8 76 12 195 21 50 3 91 7 92 8 6 5 263 -2
333 -8z"/>
</g>
</svg>
